<svg xmlns="http://www.w3.org/2000/svg" width="512" height="512">
  <g xmlns="http://www.w3.org/2000/svg" fill="#644438">
    <path d="M460 97h-16V81c0-18-14-33-32-33h-25V32a32 32 0 00-63 0v16h-60V32a32 32 0 00-64 0v16h-60V32a32 32 0 00-64 0v16H52c-18 0-33 15-33 33v193a8 8 0 0015 0V153h305a8 8 0 000-15H34V81c0-10 8-18 18-18h24v16a32 32 0 0064 0V63h60v16a32 32 0 0064 0V63h60v16a32 32 0 0063 0V63h25c10 0 17 8 17 18v57h-57a8 8 0 000 15h57v278c0 10-7 18-17 18H52c-10 0-18-8-18-18V307a8 8 0 00-15 0v124c0 18 15 33 33 33h16v15c0 18 14 33 32 33h280a8 8 0 000-15H100c-10 0-17-8-17-18v-15h329c18 0 32-15 32-33V201h34v278c0 10-8 18-18 18h-48a8 8 0 000 15h48c18 0 33-15 33-33V129c0-18-15-32-33-32zm-352-1c-9 0-17-7-17-17V32a17 17 0 0134 0v47c0 10-8 17-17 17zm124 0c-10 0-17-7-17-17V32a17 17 0 0134 0v47c0 10-8 17-17 17zm140-17a17 17 0 01-33 0V32a17 17 0 0133 0v47zm72 107v-74h16c10 0 18 7 18 17v57z" data-original="#000000"/>
    <path d="M319 332c0-24-10-58-25-86-18-35-40-54-62-54s-45 19-63 54c-14 28-24 62-24 86a87 87 0 00174 0zm-145-61h116c7 19 12 39 13 55-3-2-8-5-17-5s-14 3-18 6c-3 2-5 3-9 3s-6-1-9-3c-4-3-9-6-18-6s-14 3-18 6c-3 2-5 3-9 3-5 0-6-1-9-3-4-3-9-6-18-6s-14 3-18 5c1-16 6-36 14-55zm8-18l7-12h85a172 172 0 019 15H181l1-3zm50-46c10 0 21 7 31 19h-63c11-12 22-19 32-19zm-71 136l7-4c3-2 5-3 10-3 4 0 6 1 9 3 4 3 9 6 18 6s14-3 18-6c3-2 4-3 9-3s6 1 9 3c4 3 9 6 18 6s14-3 18-6c3-2 5-3 9-3s6 1 9 3l8 4a72 72 0 01-142 0z" data-original="#000000"/>
    <path d="M232 305a8 8 0 100-15 8 8 0 000 15zM191 305a8 8 0 100-15 8 8 0 000 15zM273 305a8 8 0 100-15 8 8 0 000 15z" data-original="#000000"/>
  </g>
</svg>
