<svg xmlns="http://www.w3.org/2000/svg" width="512" height="512">
  <path xmlns="http://www.w3.org/2000/svg" d="M458 391c8-9 13-21 13-33v-5a51 51 0 00-102 0v5c0 12 5 24 13 33-19 4-34 16-44 32a72 72 0 00-44-32c8-9 13-21 13-33v-5a51 51 0 00-102 0v5c0 12 5 24 13 33-19 4-34 16-44 32a72 72 0 00-44-32c8-9 13-21 13-33v-5a51 51 0 00-102 0v5c0 12 5 24 13 33-31 8-54 36-54 69v42c0 6 4 10 10 10h492c6 0 10-4 10-10v-42c0-33-23-61-54-69zm-69-38a31 31 0 0162 0v5a31 31 0 01-62 0zm-164 0a31 31 0 0162 0v5a31 31 0 01-62 0zm-164 0a31 31 0 0162 0v5a31 31 0 01-62 0zM20 460c0-28 23-52 51-52h42c28 0 51 24 51 52v32H20zm164 0c0-28 23-52 51-52h42c28 0 51 24 51 52v32H184zm308 32H348v-32c0-28 23-52 51-52h42c28 0 51 24 51 52zm0 0M77 201v55a10 10 0 0017 8l56-46h63l35 44a10 10 0 0016 0l32-44h66l57 46a10 10 0 0016-8v-56A109 109 0 00376 0H136a109 109 0 00-59 201zm59-181h240a89 89 0 0144 166c-3 2-5 5-5 9v40l-43-35c-2-2-4-2-6-2h-75c-3 0-6 1-8 4l-27 38-31-39c-2-2-5-3-8-3h-71c-2 0-4 0-6 2l-43 35v-40c0-4-2-7-5-9a89 89 0 0144-166zm0 0" fill="#644438" data-original="#000000"/>
  <path xmlns="http://www.w3.org/2000/svg" d="M376 60h1a10 10 0 000-20h-1a10 10 0 100 20zm0 0M408 72a49 49 0 012 72 10 10 0 0014 14 68 68 0 00-3-101 10 10 0 00-13 15zm0 0M225 140c13 12 25 20 26 21a10 10 0 0011 0c0-1 13-9 25-21 18-17 27-31 27-44 0-22-17-41-38-41-7 0-14 3-20 7-6-4-13-7-20-7-21 0-38 19-38 41 0 13 9 27 27 44zm11-65c5 0 9 3 13 6a10 10 0 0015 0c3-3 8-6 12-6 10 0 18 10 18 21s-21 31-38 44c-17-13-38-33-38-44s8-21 18-21zm0 0" fill="#644438" data-original="#000000"/>
</svg>
