<svg xmlns="http://www.w3.org/2000/svg" width="512" height="512" viewBox="0 0 510 510">
  <g xmlns="http://www.w3.org/2000/svg" fill="#644438">
    <path d="M285 5c57 47 98 135 119 207 10 38 16 74 16 103 0 82-44 155-112 195 110 4 202-84 202-195 0-113-99-353-225-310z" data-original="#000000"/>
    <path d="M112 267c39 8 57 21 74 32 15 11 30 21 63 27 33 7 50 3 69 0 18-4 38-8 72-2 1-26-3-53-9-77-25-4-41-1-57 2-20 4-42 9-81 1s-57-21-74-32c-16-11-30-21-63-27-41-9-58-1-83 3-8 25-15 52-19 78 31-2 52-16 108-5z" data-original="#000000"/>
    <path d="M112 161c39 8 57 21 74 32 15 11 30 21 63 27 60 12 70-9 124-4-4-16-9-31-15-46l-30-4c-39-8-58-21-74-32s-30-21-63-27c-33-7-51-4-69 0-16 3-34 7-62 4-9 15-17 32-24 50 18-4 40-7 76 0zM386 353c-29-5-45-1-62 2-20 4-42 9-81 1s-57-21-74-32c-16-11-30-21-63-27-52-11-66 4-106 5a195 195 0 00386 51zM197 77c38 8 57 21 74 32 19 13 36 23 73 29C315 76 263 0 195 0c-41 0-82 28-118 82 41 1 58-17 120-5z" data-original="#000000"/>
  </g>
</svg>
