<svg xmlns="http://www.w3.org/2000/svg" width="540.004" height="540.004">
  <path d="M180.075 134.193c-7.919-2.956-18.47 4.406-23.568 16.444-5.098 12.038-2.809 24.192 5.104 27.148 7.913 2.956 18.47-4.407 23.568-16.445 5.098-12.037 2.815-24.191-5.104-27.147zM238.411 151.604c-9.069-1.31-18.25 8.807-20.508 22.589s3.262 26.022 12.326 27.332c9.07 1.31 18.25-8.807 20.508-22.589 2.258-13.782-3.262-26.022-12.326-27.332zM365.719 134.193c-7.918 2.956-10.207 15.11-5.109 27.148s15.648 19.4 23.568 16.445c7.918-2.956 10.207-15.11 5.109-27.148s-15.648-19.401-23.568-16.445zM307.383 151.604c-9.062 1.31-14.584 13.543-12.324 27.332 2.258 13.782 11.438 23.898 20.508 22.589 9.068-1.31 14.584-13.543 12.324-27.332-2.258-13.788-11.438-23.898-20.508-22.589zM174.494 340.682c-8.403-.937-16.842 8.771-18.856 21.689-2.013 12.92 3.164 24.149 11.561 25.086 8.396.937 16.842-8.77 18.855-21.689 2.014-12.914-3.158-24.15-11.56-25.086zM118.416 303.827c-8.433-.581-16.451 9.48-17.913 22.473-1.463 12.993 4.186 23.99 12.619 24.572 8.434.581 16.451-9.48 17.914-22.473 1.462-12.993-4.193-23.99-12.62-24.572zM239.917 359.36c-9.156.367-16.34 11.982-16.053 25.948s7.944 24.994 17.099 24.627c9.156-.367 16.34-11.982 16.053-25.948s-7.944-24.994-17.099-24.627zM371.777 340.682c-8.396.937-13.574 12.173-11.561 25.086s10.459 22.626 18.855 21.689c8.404-.937 13.58-12.173 11.561-25.086-2.011-12.919-10.45-22.626-18.855-21.689zM415.236 328.399c1.463 12.992 9.48 23.054 17.912 22.473 8.434-.582 14.084-11.579 12.621-24.572-1.463-12.992-9.486-23.054-17.914-22.473-8.427.582-14.076 11.579-12.619 24.572zM306.355 359.36c-9.156-.367-16.812 10.661-17.1 24.627s6.896 25.581 16.053 25.948 16.812-10.661 17.1-24.627-6.898-25.586-16.053-25.948z"/>
  <path d="M270.002 0c-70 0-122.596 80.196-147.712 128-5.643 10.741-10.955 21.928-15.961 33.342-.416.355-.802.967-1.083 2.124l-.189.771C79.132 224.218 62.65 290.651 62.65 338.919c0 112.762 91.078 201.085 207.352 201.085 116.273 0 207.351-88.33 207.351-201.085 0-58.269-23.971-143.024-59.645-210.919C392.598 80.19 340.002 0 270.002 0zm0 12.24c38.201 0 71.304 27.485 96.818 59.26-22.82 20.471-56.463 34.823-96.567 35.337-40.931.52-73.862-15.202-95.264-37.553 25.263-30.826 57.706-57.044 95.013-57.044zm0 515.525c-82.351 0-151.262-47.002-180.313-115.411 33.292 41.989 101.573 82.044 180.521 82.044 77.926 0 145.577-39.026 179.395-80.423-29.443 67.528-97.908 113.79-179.603 113.79zm164.666-263.289l11.561-33.99c3.523 11.622 6.627 23.158 9.229 34.443-4.352 4.73-5.797 13.702-3.121 23.121 1.836 6.457 6.07 13.109 10.447 17.16 1.523 11.946 2.33 23.274 2.33 33.709a190.71 190.71 0 01-3.371 35.595c-26.787 47.301-102.297 98.477-191.532 98.477-89.652 0-165.564-51.646-192.07-99.138-2.099-11.298-3.25-22.963-3.25-34.934 0-10.648.838-22.233 2.423-34.449 4.413-4.309 8.856-10.612 10.502-16.42 2.699-9.498 1.193-18.531-3.244-23.231 3.476-15.067 7.84-30.575 12.932-46.132L113 264.476c1.083 3.201 4.633 5.196 7.931 4.449l28.299-6.377c3.299-.74 7.436.973 9.241 3.831l23.397 37.032a5.914 5.914 0 008.348 1.757l28.562-19.235c2.803-1.885 7.099-1.573 9.603.703l40.178 36.598c2.497 2.277 6.567 2.289 9.083.037l40.887-36.665c2.516-2.258 6.836-2.564 9.652-.691l28.941 19.284a5.964 5.964 0 008.377-1.769l23.574-37.051c1.818-2.852 5.961-4.565 9.254-3.819l28.402 6.383c3.292.728 6.849-1.267 7.939-4.467zM418.473 223c-1.102 3.195-4.688 5.294-8.016 4.682l-22.639-4.143c-3.322-.606-7.404 1.261-9.119 4.174l-15.746 26.849c-1.707 2.913-5.471 3.917-8.408 2.233l-24.994-14.314c-2.932-1.683-7.369-1.23-9.902 1.004l-41.672 36.683c-2.533 2.234-6.635 2.216-9.149-.042l-40.766-36.592c-2.515-2.258-6.934-2.724-9.865-1.047l-24.994 14.321a6.2 6.2 0 01-8.409-2.24l-15.747-26.849c-1.708-2.913-5.79-4.786-9.119-4.174l-22.638 4.144c-3.323.606-6.916-1.487-8.017-4.682l-16.089-46.641c5.526-13.28 11.536-26.286 17.95-38.771 4.045-3.225 8.018-7.179 10.331-11.065 2.932-4.92 4.627-11.102 4.915-16.371 5.612-9.278 11.971-18.984 19.009-28.538 20.386 26.505 57.191 45.582 104.848 45.582 45.796 0 83.949-17.62 106.591-42.516a378.99 378.99 0 0114.438 21.652c-.477 5.937 1.176 14.137 4.779 20.184 3.355 5.624 8.973 10.863 14.145 13.703 6.641 13.115 12.828 26.769 18.482 40.692L418.473 223z"/>
</svg>
