<svg xmlns="http://www.w3.org/2000/svg" width="512" height="512" viewBox="0 0 60 61">
  <g fill="#000" fill-rule="nonzero" xmlns="http://www.w3.org/2000/svg">
    <path d="M42 0c-8 0-15 10-17 19-5-4-11-5-15-4C0 19-2 35 2 46c3 9 9 14 17 14l6-1c7-3 11-7 12-14l5 1c11 0 18-8 18-19 0-13-8-27-18-27zm10 8a4 4 0 01-6-5c3 1 5 3 6 5zM38 3v2a4 4 0 01-6 3c1-2 3-4 6-5zM2 36l9 4a1 1 0 001 0l4-8 8 4 1-1 4-8 2 2-5 11-8-4-1 1-4 8-11-5v-4zm22-3l-8-3h-2l-3 8-9-4v-2l25-9 1 2zm1-11L2 30l1-2 20-8 1 1 1 1zm-14-5h3l7 2-17 6c1-4 3-6 7-8zM3 42l10 5h1l4-9 8 4h2l4-10 2 3 1 7L7 52a22 22 0 01-4-10zm5 11l27-9v2l-25 9-2-2zm17 4c-4 2-9 1-13-1l22-8c-2 4-5 8-9 9zm17-13l-5-1-1-9c-2-5-5-10-9-13 0-4 2-8 4-11a6 6 0 008-8 9 9 0 016 0l-1 3a6 6 0 009 5c3 4 5 9 5 14a6 6 0 10-2 12c-3 5-8 8-14 8zm15-10h-1a4 4 0 112-7l-1 7z" fill="#644438" data-original="#000000"/>
    <path d="M9 33a1 1 0 100 2 1 1 0 000-2zM20 44a1 1 0 10-1-2 1 1 0 001 2zM8 48a1 1 0 10-1-2 1 1 0 001 2zM32 39a1 1 0 100-1 1 1 0 000 1zM22 28a1 1 0 101 2 1 1 0 00-1-2zM47 27a5 5 0 10-10 0 5 5 0 0010 0zm-8 0a3 3 0 116 0 3 3 0 01-6 0zM42 16a3 3 0 100-6 3 3 0 000 6zm0-4a1 1 0 110 2 1 1 0 010-2zM34 14a4 4 0 100 8 4 4 0 000-8zm0 6a2 2 0 110-4 2 2 0 010 4zM44 34a4 4 0 100 8 4 4 0 000-8zm0 6a2 2 0 110-4 2 2 0 010 4zM50 22a4 4 0 100-8 4 4 0 000 8zm0-6a2 2 0 110 4 2 2 0 010-4z" fill="#644438" data-original="#000000"/>
  </g>
</svg>
