<svg xmlns="http://www.w3.org/2000/svg" width="512" height="512">
  <g xmlns="http://www.w3.org/2000/svg">
    <path d="M203 265h-16v-14c38-12 66-48 66-90V68c0-39-40-68-77-68h-38c-11 0-27 3-42 12-8 5-1 18 8 13 12-7 26-10 34-10h38c3 0 55 1 62 53v32c-10-7-17-18-21-30-3-10-16-11-21-3-24 39-96 40-119 39V68l4-17c4-9-10-14-14-5-3 6-5 15-5 22v93c0 42 27 78 65 90v14h-16c-32 0-58 27-58 59v181a8 8 0 0015 0V324c0-24 19-44 43-44h17c2 14 15 25 29 25 15 0 27-11 30-25h16c24 0 44 20 44 44v181a8 8 0 0015 0V324c0-32-26-59-59-59zM77 161v-40h11c30 0 91-5 117-41 9 23 25 34 33 38v43c0 44-36 80-81 80-44 0-80-36-80-80zm95 114c0 8-7 15-15 15s-15-7-15-15v-19h30z" fill="#644438" data-original="#000000"/>
    <path d="M183 202a7 7 0 10-11-11c-8 9-22 9-30 0a7 7 0 10-10 11 36 36 0 0051 0zM401 163c-19 0-37 10-48 26-39 2-70 35-70 74v55c0 33 20 63 52 74v3h-20c-4 0-7 3-7 7-18 7-31 25-31 44v59a8 8 0 0015 0v-59c0-11 6-22 16-27v86a8 8 0 0015 0v-95h13a24 24 0 0046 0h15v95a8 8 0 0015 0v-85c9 6 14 15 14 26v58a8 8 0 0015 1v-59c0-19-11-36-29-43 0-4-3-8-7-8h-22v-4c26-9 46-33 49-61 1-10-14-12-15-2a60 60 0 01-68 51c-31-4-51-31-51-61v-27h76l6-3 7-10 6 10c2 2 4 3 7 3h25c4 0 8-3 8-7v-21c0-12-3-24-9-34h28c4 0 7-4 7-8 0-32-26-58-58-58zm-43 232l10-1v10a9 9 0 01-18 0v-9h8zm60-119h-14l-10-16c-3-5-10-5-13 0l-11 16h-72v-13a60 60 0 01120 0v13zm-4-62a75 75 0 00-42-24c8-7 18-12 29-12 21 0 39 16 43 36z" fill="#644438" data-original="#000000"/>
    <path d="M368 338c-5 5-15 5-20 0a8 8 0 00-11 10 29 29 0 0042 0 8 8 0 00-11-10zM218 327c-4 0-7 4-7 8v2H104v-2a8 8 0 00-15 0v169a8 8 0 0015 1v-40h107v39a8 8 0 0015 1V335c0-4-4-8-8-8zm-114 59h107v31H104zm107-34v19H104v-19zm-107 98v-18h107v18z" fill="#644438" data-original="#000000"/>
  </g>
</svg>
