<?xml version="1.0" encoding="UTF-8"?>
<!DOCTYPE svg PUBLIC "-//W3C//DTD SVG 1.1//EN" "http://www.w3.org/Graphics/SVG/1.1/DTD/svg11.dtd">
<!-- Creator: CorelDRAW 2020 (64-Bit) -->
<svg xmlns="http://www.w3.org/2000/svg" xml:space="preserve" width="154px" height="25px" version="1.1" style="shape-rendering:geometricPrecision; text-rendering:geometricPrecision; image-rendering:optimizeQuality; fill-rule:evenodd; clip-rule:evenodd"
viewBox="0 0 137.38 22.64"
 xmlns:xlink="http://www.w3.org/1999/xlink"
 xmlns:xodm="http://www.corel.com/coreldraw/odm/2003">
 <defs>
  <style type="text/css">
   <![CDATA[
    .fil1 {fill:#FEFEFE}
    .fil0 {fill:#FEFEFE;fill-rule:nonzero}
   ]]>
  </style>
 </defs>
 <g id="Слой_x0020_1">
  <metadata id="CorelCorpID_0Corel-Layer"/>
  <g id="_784893936">
   <path class="fil0" d="M111.18 2.18c-0.54,-0.57 -1.37,-0.88 -2.48,-0.92 -1.12,-0.04 -2.07,0.18 -2.85,0.67 -0.6,0.35 -0.84,1.23 -0.72,2.63 0.13,1.39 0.69,4.18 1.69,8.36 0.63,2.77 1.24,4.66 1.86,5.68 0.61,1.02 1.52,1.69 2.74,2.01 1.06,0.27 2.08,-0.13 3.07,-1.22 1,-1.08 1.82,-2.7 2.47,-4.84 0.49,-1.87 1.3,-4.03 2.44,-6.47 1.68,-3.58 1.98,-5.55 0.89,-5.9 -0.19,-0.09 -0.43,-0.09 -0.73,0 -0.95,0.13 -1.59,1.41 -1.91,3.82 -0.3,2.15 -0.75,4.01 -1.34,5.6 -0.6,1.58 -1.13,2.38 -1.59,2.38 -0.6,0 -1.17,-0.8 -1.73,-2.4 -0.56,-1.6 -0.84,-3.27 -0.84,-5.01 0,-0.98 -0.08,-1.88 -0.26,-2.73 -0.18,-0.84 -0.41,-1.39 -0.71,-1.66zm0.43 16.55c0,-0.25 0.04,-0.46 0.1,-0.64 0.07,-0.19 0.14,-0.28 0.22,-0.28 0.14,0 0.39,0.31 0.76,0.92 0.13,0.24 0.17,0.45 0.1,0.62 -0.07,0.18 -0.19,0.26 -0.38,0.26 -0.24,0 -0.43,-0.08 -0.58,-0.26 -0.14,-0.17 -0.22,-0.38 -0.22,-0.62z"/>
   <path class="fil0" d="M5.87 1.72c1.34,-0.41 2.6,-0.55 3.77,-0.42 1.18,0.12 2.18,0.52 3.02,1.2 0.83,0.67 1.34,1.52 1.51,2.53 0.25,1.81 -0.07,3.17 -0.95,4.09 -0.88,0.91 -2.41,1.45 -4.59,1.63l-1.7 0.17 0 3.89c0,0.73 0,1.27 -0.01,1.62 -0.01,0.34 -0.04,0.71 -0.07,1.09 -0.04,0.39 -0.09,0.65 -0.13,0.8 -0.05,0.14 -0.15,0.3 -0.29,0.47 -0.15,0.17 -0.29,0.3 -0.43,0.39 -0.15,0.09 -0.36,0.2 -0.65,0.33 -0.64,0.33 -1.15,0.48 -1.55,0.45 -0.39,-0.03 -0.95,-0.27 -1.68,-0.74 -1.95,-1.13 -2.55,-2.45 -1.82,-3.95 0.15,-0.29 0.35,-0.92 0.59,-1.9 0.24,-0.98 0.45,-1.98 0.62,-3 0.42,-2.48 1.01,-4.46 1.75,-5.94 0.74,-1.48 1.61,-2.39 2.61,-2.71zm7.18 4.38c0,-1.32 -0.33,-2.23 -1,-2.72 -0.66,-0.49 -1.41,-0.46 -2.23,0.1 -0.83,0.55 -1.47,1.51 -1.92,2.87 -0.45,1.35 -0.59,2.3 -0.4,2.85 0.18,0.55 0.72,0.82 1.62,0.82 1.06,0 1.98,-0.39 2.76,-1.16 0.78,-0.78 1.17,-1.7 1.17,-2.76zm-8.65 8.51c0,-0.81 -0.1,-1.19 -0.29,-1.15 -0.14,0.02 -0.29,0.28 -0.46,0.8 -0.12,0.23 -0.16,0.46 -0.12,0.67 0.04,0.21 0.13,0.36 0.29,0.46 0.17,0.11 0.31,0.09 0.42,-0.07 0.1,-0.17 0.16,-0.4 0.16,-0.71z"/>
   <path class="fil0" d="M22.7 4.61c0.05,-0.16 0.27,-0.3 0.66,-0.43 0.39,-0.13 0.82,-0.19 1.3,-0.19l1.79 0 0 2.68c0,1.33 -0.3,3.07 -0.9,5.21 -0.59,2.15 -1.14,3.47 -1.64,3.97 -0.34,0.34 -0.51,0.82 -0.51,1.42 0,0.79 -0.39,1.48 -1.17,2.07 -0.77,0.58 -1.68,0.87 -2.73,0.87 -1.9,0 -2.91,-0.42 -3.04,-1.26 -0.13,-0.85 0.61,-2.06 2.23,-3.65 0.3,-0.31 0.51,-0.53 0.65,-0.67 0.14,-0.13 0.28,-0.33 0.43,-0.58 0.14,-0.25 0.23,-0.43 0.27,-0.54 0.03,-0.11 0.04,-0.32 0.02,-0.63 -0.01,-0.31 -0.06,-0.56 -0.13,-0.75 -0.06,-0.19 -0.19,-0.53 -0.38,-1.01 -0.19,-0.48 -0.37,-0.91 -0.55,-1.28 -0.17,-0.37 -0.44,-0.94 -0.82,-1.69 -1.24,-2.55 -1.52,-3.77 -0.83,-3.65 0.12,0.04 0.27,0.11 0.44,0.21 0.33,0.21 0.87,1.32 1.63,3.33 0.31,0.86 0.6,1.59 0.89,2.17 0.28,0.59 0.49,0.88 0.61,0.88 0.1,0 0.25,-0.29 0.45,-0.88 0.2,-0.58 0.37,-1.27 0.53,-2.06 0.5,-2.26 0.77,-3.44 0.8,-3.54z"/>
   <path class="fil0" d="M32.36 2.98c0.5,-0.19 1.22,-0.26 2.15,-0.2 0.93,0.06 1.81,0.23 2.66,0.51 0.45,0.12 0.57,0.33 0.38,0.64 -0.22,0.38 -0.65,0.57 -1.29,0.57 -0.91,0 -1.35,0.39 -1.32,1.17 0.06,0.84 0.65,1.89 1.79,3.15 1.31,1.43 2.01,2.72 2.12,3.87 0.1,1.16 -0.41,2.12 -1.53,2.9 -0.39,0.31 -0.89,0.6 -1.48,0.86 -0.6,0.27 -1.11,0.44 -1.54,0.51 -0.43,0.1 -0.86,0.25 -1.28,0.45 -0.42,0.2 -0.71,0.38 -0.87,0.56 -0.2,0.24 -0.59,0.43 -1.16,0.57 -0.57,0.13 -1.1,0.17 -1.59,0.11 -0.49,-0.06 -0.73,-0.2 -0.73,-0.42 0,-0.13 0.14,-0.28 0.43,-0.48 0.3,-0.2 0.64,-0.36 1.04,-0.48 0.67,-0.23 1.35,-0.83 2.04,-1.82 0.69,-0.99 1.03,-1.86 1.03,-2.6 0,-0.34 -0.35,-1 -1.06,-1.96 -0.7,-0.92 -1.21,-2.05 -1.51,-3.4 -0.3,-1.35 -0.27,-2.37 0.09,-3.04 0.14,-0.27 0.37,-0.55 0.69,-0.84 0.32,-0.28 0.63,-0.49 0.94,-0.63z"/>
   <path class="fil0" d="M50.98 5.1c0.76,-0.43 1.37,-0.61 1.83,-0.52 0.47,0.09 1.04,0.48 1.71,1.19 0.41,0.4 0.7,0.78 0.86,1.15 0.17,0.37 0.28,0.88 0.33,1.52 0.05,0.65 0.08,1.75 0.08,3.3 0,2.03 -0.06,3.42 -0.19,4.16 -0.12,0.74 -0.41,1.4 -0.87,1.99 -0.57,0.74 -1.23,1.15 -1.97,1.24 -0.74,0.09 -1.45,-0.18 -2.14,-0.8 -0.35,-0.31 -0.81,-0.52 -1.4,-0.62 -0.58,-0.11 -1.43,-0.13 -2.53,-0.08 -1.33,0.05 -2.24,0.01 -2.74,-0.13 -0.5,-0.14 -1.02,-0.48 -1.58,-1.03 -1.65,-1.67 -1.58,-3.97 0.21,-6.9 0.6,-1.02 1.15,-1.69 1.63,-2.02 0.48,-0.32 1.4,-0.67 2.76,-1.03 2.12,-0.59 3.46,-1.06 4.01,-1.42zm-1.27 5.89c0,-1.45 -0.06,-2.3 -0.18,-2.56 -0.12,-0.26 -0.55,-0.39 -1.29,-0.39 -0.93,0 -1.83,0.36 -2.71,1.06 -0.88,0.71 -1.42,1.5 -1.63,2.38 -0.19,0.86 -0.17,1.65 0.05,2.38 0.22,0.72 0.57,1.26 1.03,1.63 0.47,0.36 1.02,0.52 1.67,0.49 0.65,-0.04 1.26,-0.33 1.85,-0.88 0.52,-0.48 0.85,-0.98 0.99,-1.49 0.15,-0.51 0.22,-1.38 0.22,-2.62z"/>
   <path class="fil0" d="M58.17 5.56c0.15,-0.46 0.53,-0.79 1.11,-0.98 0.59,-0.19 1.22,-0.19 1.89,-0.01 0.67,0.18 1.18,0.51 1.52,0.99 0.28,0.43 0.57,0.7 0.87,0.79 0.3,0.1 0.77,0.07 1.41,-0.09 1.22,-0.24 2.17,-0.17 2.85,0.21 0.68,0.38 1.3,1.19 1.85,2.43 0.41,0.96 0.66,1.8 0.75,2.52 0.08,0.71 0.06,1.8 -0.08,3.26 -0.1,0.95 -0.23,1.8 -0.39,2.54 -0.15,0.74 -0.28,1.14 -0.38,1.21 -0.49,0.31 -0.74,0.05 -0.78,-0.77 -0.05,-0.68 0.06,-1.6 0.34,-2.77 0.25,-1.17 0.37,-2.06 0.35,-2.66 -0.03,-0.6 -0.23,-1.39 -0.61,-2.35 -0.5,-1.35 -1.09,-2.18 -1.77,-2.51 -0.68,-0.33 -1.5,-0.19 -2.44,0.42 -0.33,0.22 -0.57,0.4 -0.71,0.54 -0.15,0.14 -0.26,0.34 -0.33,0.62 -0.07,0.27 -0.09,0.57 -0.08,0.89 0.02,0.32 0.07,0.82 0.16,1.51 0.4,3.52 -0.13,5.74 -1.58,6.67 -0.86,0.58 -1.56,0.67 -2.12,0.26 -0.55,-0.42 -1.02,-1.4 -1.42,-2.95 -0.38,-1.34 -0.61,-3.09 -0.69,-5.24 -0.09,-2.16 0,-3.67 0.28,-4.53z"/>
   <path class="fil0" d="M77.29 1.45c0.58,-0.2 1.26,-0.16 2.04,0.13 0.77,0.3 1.26,0.69 1.44,1.19 0.09,0.21 0.09,0.56 0,1.06 -0.08,0.5 -0.21,1.01 -0.38,1.53 -0.3,0.81 -0.55,1.67 -0.77,2.58 -0.21,0.91 -0.34,1.65 -0.4,2.21 -0.05,0.56 0,0.87 0.13,0.94 0.19,0 1.05,-0.68 2.59,-2.04 1.77,-1.51 2.93,-2.2 3.49,-2.04 0.15,0.05 0.23,0.18 0.23,0.39 0,0.07 -0.26,0.37 -0.79,0.91 -0.53,0.55 -1.14,1.15 -1.85,1.83l-2.68 2.37 1.31 1.06c0.85,0.66 1.75,1.9 2.72,3.74 0.96,1.83 1.34,3.02 1.13,3.55 -0.32,0.88 -0.66,1.08 -1,0.6 -0.26,-0.37 -0.47,-1.06 -0.62,-2.07 -0.14,-0.88 -0.49,-1.82 -1.05,-2.82 -0.56,-1 -1.16,-1.76 -1.81,-2.3 -0.65,-0.53 -1.13,-0.64 -1.46,-0.33 -0.22,0.22 -0.34,0.53 -0.34,0.91 0,0.39 0.12,0.97 0.34,1.75 0.41,1.5 0.38,2.69 -0.09,3.58 -0.47,0.88 -1.43,1.55 -2.88,2 -0.6,0.19 -1.1,0.32 -1.47,0.4 -0.38,0.08 -0.73,0.09 -1.04,0.03 -0.31,-0.07 -0.54,-0.19 -0.7,-0.37 -0.15,-0.18 -0.28,-0.47 -0.37,-0.89 -0.1,-0.41 -0.16,-0.88 -0.18,-1.41 -0.03,-0.52 -0.03,-1.21 -0.01,-2.05 0.05,-2.09 0.43,-5.01 1.15,-8.79 0.71,-3.77 1.29,-5.97 1.74,-6.59 0.43,-0.5 0.96,-0.85 1.58,-1.06zm2.17 3.31c0.1,-0.24 0.17,-0.45 0.22,-0.64 0.04,-0.19 0.05,-0.34 0.04,-0.46 -0.02,-0.11 -0.07,-0.16 -0.16,-0.16 -0.22,0 -0.47,0.34 -0.75,1.03 -0.28,0.69 -0.33,1.12 -0.15,1.29 0.06,0.05 0.18,-0.02 0.34,-0.23 0.17,-0.21 0.32,-0.48 0.46,-0.83zm-0.91 15.2c0,-0.21 -0.02,-0.39 -0.06,-0.55 -0.05,-0.15 -0.09,-0.23 -0.14,-0.23 -0.09,0 -0.25,0.26 -0.5,0.78 -0.08,0.2 -0.1,0.38 -0.06,0.53 0.04,0.14 0.12,0.22 0.25,0.22 0.15,0 0.28,-0.08 0.37,-0.22 0.09,-0.15 0.14,-0.33 0.14,-0.53z"/>
   <path class="fil1" d="M94.06 0.85c-3.78,1.54 -6.15,4.35 -7.7,8.17 -1.45,3.56 -0.22,7.58 3.01,9.84 0.17,0.12 0.33,0.22 0.51,0.32 2.03,1.18 4.58,1.04 6.76,0.36 2.06,-0.66 3.39,-1.73 4.39,-3.66 1.47,-2.84 1.35,-6.5 0.1,-9.39 -0.92,-2.13 -1.87,-3.42 -4.02,-3.26 -2.64,0.19 -5.91,3.29 -7.08,6.11 -0.66,1.61 -0.8,3 0.25,5 0.56,1.07 2.91,2.44 4.67,2 1.65,-0.42 2.43,-1.62 2.97,-3.64 0.36,-1.37 0.03,-3.84 -1,-4.4 -1.02,-0.55 -1.97,-0.43 -3.11,0.45 -1.14,0.88 -0.72,2.32 0.29,2.79 0.82,0.57 2.8,-0.86 1.67,1.56 -0.7,1.49 -2.45,1.13 -3.07,0.7 -1.48,-1.01 -1.52,-2.44 -0.87,-3.9 0.79,-1.78 2.18,-3.84 4.15,-4.09 2.62,-0.33 3.78,1.72 4.08,4.01 0.16,1.29 0.11,2.86 -0.3,4.1 -0.17,0.48 -0.38,0.87 -0.68,1.29 -2.4,3.21 -5.85,4.07 -9.08,1.4 -1.8,-1.48 -2.11,-3.52 -1.77,-5.8 0.36,-2.39 2.19,-4.54 3.89,-6.18 1.68,-1.61 4.32,-3.31 7.57,-2.04 0.93,0.36 2.13,1.5 2.67,1.95 0.42,0.36 0.54,-2.7 -2.11,-4.08 -1.03,-0.54 -4.56,-0.27 -6.19,0.39z"/>
   <path class="fil1" d="M128.85 0.68c-3.77,1.54 -6.14,4.35 -7.7,8.17 -1.45,3.56 -0.21,7.57 3.02,9.84 0.16,0.12 0.33,0.22 0.5,0.32 2.03,1.18 4.59,1.04 6.76,0.36 2.06,-0.66 3.39,-1.73 4.39,-3.66 1.47,-2.84 1.36,-6.5 0.11,-9.39 -0.92,-2.13 -1.88,-3.42 -4.03,-3.27 -2.63,0.2 -5.9,3.29 -7.07,6.11 -0.67,1.62 -0.8,3.01 0.24,5 0.56,1.08 2.91,2.45 4.68,2 1.65,-0.41 2.43,-1.61 2.96,-3.63 0.36,-1.37 0.04,-3.84 -0.99,-4.4 -1.02,-0.56 -1.97,-0.43 -3.11,0.45 -1.15,0.88 -0.73,2.32 0.29,2.78 0.81,0.58 2.8,-0.85 1.67,1.56 -0.7,1.5 -2.46,1.13 -3.08,0.71 -1.47,-1.01 -1.51,-2.44 -0.86,-3.9 0.78,-1.78 2.17,-3.84 4.15,-4.09 2.61,-0.33 3.78,1.72 4.07,4.01 0.17,1.28 0.12,2.86 -0.3,4.1 -0.17,0.47 -0.38,0.87 -0.67,1.28 -2.4,3.21 -5.86,4.07 -9.09,1.41 -1.8,-1.48 -2.1,-3.52 -1.76,-5.81 0.36,-2.39 2.18,-4.53 3.88,-6.17 1.68,-1.61 4.32,-3.31 7.58,-2.05 0.92,0.36 2.13,1.51 2.66,1.96 0.43,0.36 0.54,-2.71 -2.1,-4.08 -1.04,-0.54 -4.57,-0.28 -6.2,0.39z"/>
  </g>
 </g>
</svg>
