<?xml version="1.0" encoding="UTF-8"?>
<!DOCTYPE svg PUBLIC "-//W3C//DTD SVG 1.1//EN" "http://www.w3.org/Graphics/SVG/1.1/DTD/svg11.dtd">
<!-- Creator: CorelDRAW 2020 (64-Bit) -->
<svg xmlns="http://www.w3.org/2000/svg" xml:space="preserve" width="202px" height="36px" version="1.1" style="shape-rendering:geometricPrecision; text-rendering:geometricPrecision; image-rendering:optimizeQuality; fill-rule:evenodd; clip-rule:evenodd"
viewBox="0 0 154.44 27.59"
 xmlns:xlink="http://www.w3.org/1999/xlink"
 xmlns:xodm="http://www.corel.com/coreldraw/odm/2003">
 <defs>
  <style type="text/css">
   <![CDATA[
    .fil1 {fill:#2B2A29}
    .fil0 {fill:#2B2A29;fill-rule:nonzero}
   ]]>
  </style>
 </defs>
 <g id="Слой_x0020_1">
  <metadata id="CorelCorpID_0Corel-Layer"/>
  <g id="_785276560">
   <path class="fil0" d="M131.25 7.33c-0.48,-0.51 -1.22,-0.78 -2.2,-0.81 -0.98,-0.04 -1.82,0.16 -2.52,0.59 -0.53,0.31 -0.74,1.09 -0.63,2.32 0.11,1.24 0.6,3.71 1.49,7.41 0.56,2.44 1.1,4.12 1.64,5.02 0.54,0.9 1.35,1.49 2.43,1.78 0.94,0.24 1.85,-0.12 2.72,-1.08 0.88,-0.96 1.61,-2.39 2.18,-4.28 0.43,-1.66 1.15,-3.57 2.16,-5.73 1.49,-3.17 1.76,-4.91 0.8,-5.22 -0.17,-0.08 -0.39,-0.08 -0.65,0 -0.84,0.12 -1.41,1.25 -1.7,3.38 -0.26,1.9 -0.66,3.55 -1.18,4.95 -0.53,1.41 -1,2.11 -1.41,2.11 -0.53,0 -1.04,-0.71 -1.53,-2.12 -0.49,-1.42 -0.74,-2.9 -0.74,-4.43 0,-0.87 -0.08,-1.67 -0.23,-2.42 -0.16,-0.74 -0.37,-1.23 -0.63,-1.47zm0.38 14.65c0,-0.22 0.03,-0.41 0.09,-0.57 0.06,-0.16 0.12,-0.24 0.19,-0.24 0.12,0 0.35,0.27 0.68,0.81 0.11,0.21 0.14,0.4 0.08,0.55 -0.06,0.15 -0.17,0.23 -0.33,0.23 -0.21,0 -0.38,-0.08 -0.51,-0.23 -0.13,-0.15 -0.2,-0.34 -0.2,-0.55z"/>
   <path class="fil0" d="M38.05 6.92c1.19,-0.36 2.3,-0.48 3.34,-0.37 1.04,0.11 1.93,0.46 2.67,1.06 0.74,0.6 1.18,1.34 1.34,2.25 0.22,1.6 -0.06,2.8 -0.84,3.61 -0.79,0.81 -2.14,1.29 -4.06,1.44l-1.51 0.15 0 3.45c0,0.65 0,1.12 -0.01,1.43 -0.01,0.3 -0.03,0.63 -0.07,0.97 -0.03,0.34 -0.07,0.57 -0.11,0.7 -0.04,0.13 -0.13,0.27 -0.26,0.42 -0.12,0.15 -0.25,0.27 -0.38,0.35 -0.13,0.07 -0.32,0.17 -0.57,0.29 -0.56,0.29 -1.02,0.42 -1.37,0.39 -0.35,-0.02 -0.85,-0.24 -1.49,-0.65 -1.72,-1 -2.26,-2.17 -1.61,-3.49 0.14,-0.26 0.31,-0.82 0.52,-1.69 0.22,-0.87 0.4,-1.75 0.55,-2.65 0.38,-2.2 0.89,-3.95 1.55,-5.26 0.65,-1.31 1.42,-2.11 2.31,-2.4zm6.35 3.88c0,-1.17 -0.29,-1.98 -0.88,-2.41 -0.59,-0.44 -1.25,-0.41 -1.98,0.09 -0.73,0.49 -1.29,1.34 -1.69,2.54 -0.4,1.2 -0.52,2.04 -0.36,2.52 0.16,0.49 0.64,0.73 1.44,0.73 0.94,0 1.75,-0.34 2.44,-1.03 0.69,-0.69 1.03,-1.5 1.03,-2.44zm-7.66 7.53c0,-0.71 -0.08,-1.05 -0.25,-1.02 -0.12,0.02 -0.26,0.25 -0.41,0.71 -0.1,0.21 -0.13,0.4 -0.1,0.59 0.03,0.19 0.12,0.32 0.25,0.41 0.16,0.1 0.28,0.08 0.37,-0.06 0.1,-0.15 0.14,-0.36 0.14,-0.63z"/>
   <path class="fil0" d="M52.94 9.48c0.05,-0.14 0.24,-0.27 0.59,-0.38 0.34,-0.11 0.73,-0.17 1.15,-0.17l1.58 0 0 2.38c0,1.17 -0.26,2.71 -0.79,4.61 -0.52,1.89 -1.01,3.06 -1.45,3.51 -0.31,0.3 -0.46,0.72 -0.46,1.25 0,0.7 -0.34,1.31 -1.03,1.83 -0.68,0.52 -1.49,0.78 -2.42,0.78 -1.68,0 -2.57,-0.37 -2.69,-1.12 -0.11,-0.75 0.55,-1.82 1.98,-3.22 0.26,-0.28 0.45,-0.48 0.57,-0.6 0.12,-0.12 0.25,-0.29 0.38,-0.51 0.13,-0.22 0.21,-0.38 0.24,-0.48 0.03,-0.1 0.04,-0.29 0.02,-0.56 -0.01,-0.28 -0.05,-0.5 -0.11,-0.67 -0.06,-0.17 -0.18,-0.46 -0.35,-0.89 -0.16,-0.43 -0.32,-0.8 -0.48,-1.13 -0.15,-0.33 -0.39,-0.83 -0.73,-1.5 -1.1,-2.26 -1.34,-3.33 -0.73,-3.22 0.11,0.03 0.24,0.09 0.39,0.18 0.29,0.18 0.77,1.17 1.44,2.95 0.27,0.76 0.54,1.4 0.79,1.92 0.25,0.52 0.43,0.78 0.54,0.78 0.09,0 0.22,-0.26 0.4,-0.78 0.17,-0.52 0.33,-1.13 0.47,-1.83 0.44,-2 0.67,-3.04 0.7,-3.13z"/>
   <path class="fil0" d="M61.49 8.04c0.45,-0.17 1.08,-0.23 1.9,-0.17 0.83,0.05 1.61,0.2 2.36,0.44 0.39,0.11 0.51,0.3 0.34,0.57 -0.2,0.34 -0.58,0.51 -1.14,0.51 -0.81,0 -1.2,0.34 -1.17,1.03 0.05,0.74 0.57,1.67 1.58,2.79 1.16,1.26 1.78,2.4 1.87,3.43 0.1,1.02 -0.35,1.87 -1.34,2.56 -0.36,0.27 -0.79,0.53 -1.32,0.76 -0.53,0.24 -0.98,0.39 -1.36,0.45 -0.38,0.09 -0.76,0.22 -1.13,0.4 -0.38,0.17 -0.63,0.34 -0.77,0.49 -0.18,0.21 -0.52,0.38 -1.03,0.5 -0.5,0.13 -0.97,0.16 -1.4,0.11 -0.44,-0.06 -0.66,-0.18 -0.66,-0.38 0,-0.11 0.13,-0.25 0.39,-0.42 0.26,-0.18 0.57,-0.32 0.92,-0.43 0.59,-0.19 1.19,-0.73 1.8,-1.61 0.61,-0.88 0.92,-1.64 0.92,-2.3 0,-0.3 -0.31,-0.88 -0.94,-1.74 -0.62,-0.8 -1.07,-1.81 -1.34,-3 -0.26,-1.2 -0.24,-2.1 0.08,-2.69 0.13,-0.24 0.33,-0.49 0.61,-0.74 0.28,-0.25 0.56,-0.44 0.83,-0.56z"/>
   <path class="fil0" d="M77.97 9.91c0.67,-0.38 1.21,-0.53 1.63,-0.46 0.41,0.08 0.91,0.43 1.5,1.06 0.37,0.35 0.63,0.69 0.77,1.01 0.15,0.33 0.24,0.78 0.29,1.35 0.04,0.58 0.07,1.55 0.07,2.92 0,1.8 -0.06,3.03 -0.16,3.68 -0.11,0.66 -0.37,1.24 -0.78,1.76 -0.51,0.66 -1.08,1.02 -1.74,1.1 -0.66,0.08 -1.29,-0.16 -1.9,-0.71 -0.3,-0.27 -0.72,-0.46 -1.23,-0.55 -0.52,-0.09 -1.27,-0.11 -2.24,-0.07 -1.18,0.05 -1.99,0.01 -2.43,-0.11 -0.44,-0.12 -0.91,-0.43 -1.39,-0.92 -1.47,-1.47 -1.41,-3.51 0.18,-6.1 0.53,-0.9 1.01,-1.5 1.44,-1.79 0.43,-0.29 1.24,-0.59 2.45,-0.91 1.87,-0.52 3.05,-0.94 3.54,-1.26zm-1.12 5.22c0,-1.28 -0.05,-2.04 -0.16,-2.27 -0.11,-0.23 -0.49,-0.34 -1.14,-0.34 -0.83,0 -1.63,0.31 -2.4,0.94 -0.78,0.62 -1.26,1.32 -1.44,2.1 -0.17,0.76 -0.16,1.46 0.04,2.1 0.2,0.65 0.5,1.13 0.92,1.45 0.41,0.32 0.9,0.46 1.47,0.43 0.57,-0.03 1.12,-0.29 1.64,-0.78 0.45,-0.42 0.75,-0.86 0.88,-1.31 0.13,-0.45 0.19,-1.23 0.19,-2.32z"/>
   <path class="fil0" d="M84.34 10.32c0.13,-0.41 0.46,-0.7 0.98,-0.87 0.52,-0.16 1.07,-0.17 1.67,-0.01 0.59,0.16 1.04,0.46 1.35,0.88 0.24,0.38 0.5,0.62 0.76,0.7 0.27,0.09 0.69,0.06 1.25,-0.08 1.08,-0.21 1.92,-0.15 2.53,0.18 0.6,0.34 1.14,1.06 1.63,2.15 0.37,0.86 0.59,1.6 0.67,2.23 0.07,0.64 0.05,1.6 -0.07,2.9 -0.09,0.84 -0.21,1.58 -0.35,2.24 -0.13,0.65 -0.25,1.01 -0.34,1.07 -0.43,0.28 -0.65,0.05 -0.69,-0.68 -0.04,-0.6 0.06,-1.41 0.3,-2.45 0.23,-1.04 0.33,-1.82 0.31,-2.36 -0.02,-0.53 -0.2,-1.22 -0.54,-2.08 -0.44,-1.19 -0.96,-1.93 -1.56,-2.22 -0.61,-0.29 -1.33,-0.16 -2.16,0.37 -0.29,0.2 -0.5,0.36 -0.63,0.48 -0.13,0.12 -0.23,0.31 -0.29,0.55 -0.06,0.24 -0.08,0.51 -0.07,0.79 0.02,0.28 0.06,0.73 0.14,1.34 0.35,3.11 -0.11,5.07 -1.4,5.9 -0.76,0.52 -1.38,0.59 -1.87,0.23 -0.49,-0.37 -0.91,-1.24 -1.26,-2.61 -0.33,-1.19 -0.54,-2.74 -0.62,-4.64 -0.07,-1.91 0.01,-3.24 0.26,-4.01z"/>
   <path class="fil0" d="M101.25 6.69c0.52,-0.19 1.12,-0.15 1.81,0.11 0.69,0.26 1.11,0.61 1.28,1.05 0.08,0.19 0.08,0.5 0,0.94 -0.08,0.44 -0.19,0.89 -0.34,1.35 -0.26,0.72 -0.49,1.48 -0.68,2.29 -0.19,0.81 -0.31,1.46 -0.35,1.95 -0.05,0.5 -0.01,0.78 0.11,0.84 0.17,0 0.93,-0.6 2.29,-1.81 1.57,-1.34 2.6,-1.94 3.09,-1.81 0.13,0.05 0.2,0.16 0.2,0.35 0,0.06 -0.23,0.33 -0.69,0.81 -0.47,0.48 -1.01,1.02 -1.64,1.61l-2.38 2.11 1.17 0.93c0.75,0.58 1.55,1.68 2.4,3.31 0.85,1.62 1.19,2.67 1.01,3.14 -0.29,0.78 -0.59,0.96 -0.9,0.53 -0.22,-0.32 -0.41,-0.93 -0.55,-1.83 -0.12,-0.78 -0.43,-1.61 -0.92,-2.49 -0.5,-0.89 -1.03,-1.57 -1.6,-2.04 -0.57,-0.47 -1,-0.57 -1.29,-0.3 -0.2,0.2 -0.3,0.47 -0.3,0.82 0,0.34 0.1,0.85 0.3,1.54 0.36,1.33 0.33,2.38 -0.08,3.17 -0.42,0.78 -1.27,1.37 -2.55,1.77 -0.54,0.17 -0.97,0.28 -1.31,0.35 -0.33,0.07 -0.64,0.08 -0.91,0.03 -0.28,-0.06 -0.48,-0.16 -0.62,-0.32 -0.14,-0.16 -0.25,-0.43 -0.33,-0.79 -0.09,-0.37 -0.14,-0.78 -0.16,-1.25 -0.02,-0.46 -0.03,-1.07 -0.01,-1.82 0.04,-1.84 0.38,-4.43 1.01,-7.77 0.64,-3.34 1.15,-5.29 1.55,-5.83 0.38,-0.45 0.84,-0.76 1.39,-0.94zm1.92 2.92c0.1,-0.21 0.16,-0.4 0.2,-0.57 0.04,-0.16 0.05,-0.3 0.03,-0.4 -0.01,-0.1 -0.06,-0.15 -0.13,-0.15 -0.2,0 -0.42,0.31 -0.67,0.92 -0.24,0.61 -0.29,0.99 -0.13,1.14 0.06,0.05 0.16,-0.02 0.3,-0.2 0.15,-0.19 0.28,-0.43 0.4,-0.74zm-0.8 13.45c0,-0.18 -0.02,-0.34 -0.05,-0.48 -0.04,-0.14 -0.08,-0.2 -0.13,-0.2 -0.08,0 -0.22,0.22 -0.43,0.68 -0.08,0.18 -0.1,0.34 -0.06,0.47 0.04,0.13 0.11,0.2 0.22,0.2 0.13,0 0.24,-0.07 0.33,-0.2 0.08,-0.13 0.12,-0.29 0.12,-0.47z"/>
   <path class="fil1" d="M116.1 6.15c-3.35,1.37 -5.44,3.85 -6.82,7.23 -1.28,3.16 -0.19,6.71 2.67,8.71 0.14,0.11 0.29,0.2 0.45,0.29 1.79,1.04 4.06,0.92 5.98,0.31 1.82,-0.58 3,-1.53 3.88,-3.24 1.31,-2.51 1.21,-5.74 0.1,-8.31 -0.82,-1.88 -1.66,-3.02 -3.56,-2.88 -2.34,0.17 -5.23,2.91 -6.26,5.4 -0.6,1.43 -0.71,2.66 0.21,4.43 0.5,0.95 2.57,2.16 4.14,1.77 1.46,-0.37 2.15,-1.43 2.62,-3.22 0.32,-1.21 0.03,-3.4 -0.88,-3.89 -0.9,-0.49 -1.74,-0.38 -2.75,0.4 -1.01,0.78 -0.64,2.05 0.25,2.46 0.73,0.51 2.48,-0.76 1.49,1.38 -0.62,1.33 -2.18,1 -2.73,0.63 -1.3,-0.9 -1.34,-2.16 -0.77,-3.46 0.7,-1.57 1.93,-3.39 3.68,-3.62 2.31,-0.29 3.34,1.53 3.6,3.55 0.15,1.14 0.11,2.53 -0.26,3.63 -0.15,0.42 -0.34,0.77 -0.6,1.14 -2.12,2.84 -5.18,3.6 -8.04,1.24 -1.59,-1.31 -1.86,-3.11 -1.56,-5.13 0.32,-2.12 1.93,-4.02 3.44,-5.47 1.49,-1.43 3.82,-2.93 6.7,-1.81 0.82,0.32 1.89,1.33 2.36,1.73 0.38,0.32 0.48,-2.39 -1.86,-3.61 -0.92,-0.48 -4.04,-0.24 -5.48,0.34z"/>
   <path class="fil1" d="M146.89 6c-3.34,1.36 -5.44,3.85 -6.81,7.23 -1.29,3.15 -0.19,6.7 2.66,8.71 0.15,0.1 0.3,0.19 0.45,0.28 1.79,1.05 4.06,0.93 5.98,0.32 1.82,-0.58 3,-1.53 3.89,-3.24 1.3,-2.51 1.2,-5.75 0.09,-8.31 -0.81,-1.88 -1.66,-3.03 -3.56,-2.89 -2.34,0.17 -5.23,2.91 -6.26,5.41 -0.59,1.43 -0.71,2.66 0.21,4.42 0.5,0.95 2.58,2.17 4.14,1.78 1.46,-0.37 2.15,-1.43 2.63,-3.22 0.32,-1.22 0.02,-3.4 -0.88,-3.89 -0.91,-0.5 -1.75,-0.39 -2.76,0.39 -1.01,0.78 -0.64,2.06 0.26,2.47 0.72,0.51 2.48,-0.76 1.48,1.38 -0.62,1.32 -2.18,1 -2.72,0.62 -1.31,-0.89 -1.35,-2.16 -0.77,-3.45 0.7,-1.58 1.92,-3.4 3.67,-3.62 2.32,-0.29 3.35,1.52 3.61,3.55 0.15,1.14 0.1,2.53 -0.26,3.62 -0.16,0.43 -0.34,0.78 -0.6,1.14 -2.13,2.85 -5.19,3.61 -8.05,1.25 -1.58,-1.31 -1.86,-3.11 -1.55,-5.14 0.31,-2.11 1.93,-4.01 3.43,-5.46 1.49,-1.43 3.82,-2.93 6.71,-1.81 0.82,0.31 1.88,1.33 2.35,1.73 0.38,0.31 0.48,-2.4 -1.86,-3.61 -0.91,-0.48 -4.04,-0.25 -5.48,0.34z"/>
  </g>
  <path class="fil1" d="M3.79 24.7c2.67,2.55 6.52,3.17 10.08,2.78 3.64,-0.41 7.52,-3.46 9.11,-6.92 1.87,-4.09 2.63,-8.62 0.63,-12.64 -1.09,-2.18 -3.63,-3.59 -6.2,-3.63 -4.7,-0.08 -9.52,4.3 -11.33,8.67 -0.68,1.64 -0.52,3.46 0.03,5.14 1.39,3.59 6.34,5.82 9.5,2.86 1.12,-1.04 2.06,-2.73 2.43,-4.22 0.48,-1.97 0.71,-5.31 -1.49,-6.35 -1.89,-0.78 -4.05,-0.1 -4.15,2.21 -0.04,1.08 0.48,1.85 1.52,2.17 1.27,0.29 1.89,0.23 1.3,1.69 -0.72,1.77 -2.04,3.22 -4.08,2.42 -0.27,-0.11 -0.5,-0.23 -0.76,-0.38 -1.66,-1.06 -2.22,-2.81 -1.6,-4.66 0.23,-0.71 0.58,-1.31 1,-1.93 1.01,-1.42 2.45,-2.87 3.96,-3.74 1.79,-0.93 3.75,-1.18 5.48,-0.04 2.97,1.95 2.82,5.6 2.01,8.65 -0.9,3.38 -2.83,6.03 -6.07,7.39 -4.12,1.71 -7.66,0.37 -10.28,-3.06 -2.04,-2.65 -2.1,-5.66 -0.95,-8.66 1.34,-3.5 3.68,-6.18 6.83,-8.05 3.74,-2.22 8.4,-3.02 12.3,-0.63 1.22,0.75 2.37,2.37 3.26,3.5 0.24,0.32 0.38,0.12 0.34,-0.2 -0.52,-3.69 -3.42,-6.65 -7.17,-7.02 -4.08,-0.34 -8.57,0.97 -11.82,3.36 -2.24,1.65 -4.05,3.39 -5.71,5.92 -3.21,5 -2.38,11.23 1.83,15.37z"/>
 </g>
</svg>
