<?xml version="1.0" encoding="UTF-8"?>
<!DOCTYPE svg PUBLIC "-//W3C//DTD SVG 1.1//EN" "http://www.w3.org/Graphics/SVG/1.1/DTD/svg11.dtd">
<!-- Creator: CorelDRAW 2020 (64-Bit) -->
<svg xmlns="http://www.w3.org/2000/svg" xml:space="preserve" width="48px" height="50px" version="1.1" style="shape-rendering:geometricPrecision; text-rendering:geometricPrecision; image-rendering:optimizeQuality; fill-rule:evenodd; clip-rule:evenodd"
viewBox="0 0 25.11 25.98"
 xmlns:xlink="http://www.w3.org/1999/xlink"
 xmlns:xodm="http://www.corel.com/coreldraw/odm/2003">
 <defs>
  <style type="text/css">
   <![CDATA[
    .fil0 {fill:#FEFEFE}
   ]]>
  </style>
 </defs>
 <g id="Слой_x0020_1">
  <metadata id="CorelCorpID_0Corel-Layer"/>
  <path class="fil0" d="M3.57 23.26c2.51,2.41 6.14,2.99 9.49,2.62 3.43,-0.38 7.08,-3.26 8.58,-6.52 1.76,-3.85 2.48,-8.11 0.59,-11.9 -1.02,-2.06 -3.41,-3.38 -5.83,-3.42 -4.43,-0.08 -8.97,4.05 -10.67,8.16 -0.64,1.55 -0.49,3.27 0.03,4.84 1.3,3.39 5.96,5.48 8.94,2.7 1.05,-0.98 1.94,-2.57 2.28,-3.98 0.46,-1.85 0.68,-4.99 -1.39,-5.98 -1.79,-0.73 -3.82,-0.09 -3.91,2.08 -0.04,1.02 0.45,1.75 1.42,2.05 1.2,0.27 1.79,0.21 1.23,1.59 -0.68,1.67 -1.92,3.03 -3.84,2.28 -0.26,-0.1 -0.47,-0.22 -0.71,-0.35 -1.56,-1.01 -2.09,-2.66 -1.51,-4.39 0.22,-0.67 0.55,-1.24 0.94,-1.82 0.95,-1.34 2.3,-2.71 3.73,-3.53 1.69,-0.87 3.53,-1.11 5.16,-0.04 2.8,1.85 2.66,5.28 1.89,8.15 -0.85,3.18 -2.66,5.68 -5.71,6.96 -3.88,1.61 -7.21,0.35 -9.69,-2.88 -1.91,-2.5 -1.97,-5.33 -0.89,-8.16 1.27,-3.29 3.47,-5.82 6.43,-7.58 3.52,-2.08 7.92,-2.84 11.59,-0.59 1.15,0.7 2.23,2.23 3.06,3.3 0.24,0.29 0.36,0.11 0.33,-0.19 -0.5,-3.48 -3.22,-6.26 -6.75,-6.61 -3.85,-0.32 -8.08,0.91 -11.14,3.16 -2.11,1.55 -3.81,3.2 -5.38,5.57 -3.02,4.71 -2.24,10.58 1.73,14.48z"/>
 </g>
</svg>
