<?xml version="1.0" encoding="UTF-8"?>
<!DOCTYPE svg PUBLIC "-//W3C//DTD SVG 1.1//EN" "http://www.w3.org/Graphics/SVG/1.1/DTD/svg11.dtd">
<!-- Creator: CorelDRAW 2020 (64-Bit) -->
<svg xmlns="http://www.w3.org/2000/svg" xml:space="preserve" width="200px" height="36px" version="1.1" style="shape-rendering:geometricPrecision; text-rendering:geometricPrecision; image-rendering:optimizeQuality; fill-rule:evenodd; clip-rule:evenodd"
viewBox="0 0 152.91 27.31"
 xmlns:xlink="http://www.w3.org/1999/xlink"
 xmlns:xodm="http://www.corel.com/coreldraw/odm/2003">
 <defs>
  <style type="text/css">
   <![CDATA[
    .fil1 {fill:#644438}
    .fil0 {fill:#644438;fill-rule:nonzero}
   ]]>
  </style>
 </defs>
 <g id="Слой_x0020_1">
  <metadata id="CorelCorpID_0Corel-Layer"/>
  <g id="_783439264">
   <path class="fil0" d="M129.95 7.25c-0.48,-0.5 -1.2,-0.76 -2.18,-0.8 -0.97,-0.03 -1.8,0.16 -2.49,0.59 -0.53,0.31 -0.73,1.08 -0.63,2.3 0.11,1.22 0.6,3.67 1.48,7.33 0.55,2.42 1.09,4.08 1.62,4.97 0.54,0.89 1.34,1.48 2.41,1.77 0.93,0.24 1.83,-0.12 2.69,-1.07 0.87,-0.95 1.59,-2.37 2.16,-4.25 0.43,-1.64 1.14,-3.53 2.14,-5.67 1.48,-3.13 1.74,-4.86 0.79,-5.17 -0.17,-0.07 -0.38,-0.07 -0.65,0 -0.83,0.12 -1.39,1.24 -1.67,3.36 -0.26,1.87 -0.66,3.51 -1.18,4.9 -0.52,1.39 -0.99,2.09 -1.39,2.09 -0.52,0 -1.03,-0.71 -1.52,-2.11 -0.48,-1.4 -0.73,-2.86 -0.73,-4.38 0,-0.86 -0.07,-1.66 -0.23,-2.39 -0.15,-0.74 -0.36,-1.23 -0.62,-1.47zm0.38 14.51c0,-0.22 0.03,-0.4 0.09,-0.56 0.05,-0.16 0.12,-0.24 0.19,-0.24 0.12,0 0.34,0.26 0.66,0.8 0.12,0.21 0.15,0.39 0.09,0.55 -0.06,0.15 -0.17,0.22 -0.33,0.22 -0.21,0 -0.38,-0.07 -0.51,-0.22 -0.13,-0.16 -0.19,-0.34 -0.19,-0.55z"/>
   <path class="fil0" d="M37.67 6.85c1.18,-0.35 2.28,-0.47 3.31,-0.36 1.03,0.11 1.91,0.46 2.64,1.04 0.73,0.59 1.18,1.34 1.33,2.23 0.22,1.58 -0.06,2.77 -0.84,3.57 -0.77,0.8 -2.11,1.28 -4.01,1.43l-1.5 0.15 0 3.42c0,0.64 0,1.11 -0.01,1.41 -0.01,0.3 -0.03,0.62 -0.06,0.96 -0.03,0.34 -0.07,0.57 -0.11,0.7 -0.05,0.12 -0.13,0.26 -0.26,0.41 -0.12,0.15 -0.25,0.27 -0.38,0.34 -0.12,0.08 -0.31,0.18 -0.57,0.29 -0.55,0.29 -1,0.42 -1.35,0.4 -0.34,-0.03 -0.84,-0.24 -1.48,-0.65 -1.7,-0.99 -2.23,-2.15 -1.59,-3.46 0.14,-0.25 0.31,-0.81 0.52,-1.67 0.21,-0.86 0.39,-1.73 0.54,-2.63 0.37,-2.17 0.88,-3.9 1.53,-5.2 0.65,-1.3 1.41,-2.09 2.29,-2.38zm6.29 3.84c0,-1.16 -0.29,-1.95 -0.87,-2.38 -0.58,-0.43 -1.23,-0.4 -1.96,0.08 -0.72,0.49 -1.28,1.33 -1.68,2.52 -0.39,1.19 -0.51,2.02 -0.35,2.5 0.16,0.48 0.63,0.72 1.43,0.72 0.92,0 1.73,-0.34 2.41,-1.02 0.68,-0.69 1.02,-1.49 1.02,-2.42zm-7.58 7.46c0,-0.71 -0.08,-1.05 -0.25,-1.01 -0.12,0.01 -0.25,0.25 -0.41,0.71 -0.1,0.2 -0.13,0.39 -0.1,0.58 0.04,0.18 0.12,0.32 0.26,0.4 0.15,0.1 0.27,0.08 0.36,-0.06 0.09,-0.15 0.14,-0.35 0.14,-0.62z"/>
   <path class="fil0" d="M52.42 9.38c0.05,-0.13 0.24,-0.26 0.58,-0.37 0.34,-0.11 0.72,-0.17 1.14,-0.17l1.56 0 0 2.36c0,1.16 -0.26,2.68 -0.78,4.56 -0.52,1.88 -1,3.04 -1.44,3.47 -0.3,0.31 -0.45,0.72 -0.45,1.25 0,0.69 -0.34,1.3 -1.02,1.81 -0.68,0.51 -1.48,0.77 -2.4,0.77 -1.66,0 -2.55,-0.37 -2.66,-1.11 -0.11,-0.74 0.54,-1.8 1.96,-3.19 0.26,-0.27 0.45,-0.47 0.57,-0.59 0.12,-0.12 0.24,-0.29 0.37,-0.51 0.13,-0.22 0.21,-0.38 0.24,-0.48 0.03,-0.09 0.04,-0.28 0.02,-0.55 -0.01,-0.27 -0.05,-0.49 -0.11,-0.66 -0.06,-0.16 -0.18,-0.46 -0.34,-0.88 -0.17,-0.42 -0.33,-0.8 -0.48,-1.12 -0.15,-0.33 -0.39,-0.82 -0.72,-1.48 -1.09,-2.24 -1.33,-3.3 -0.73,-3.2 0.11,0.03 0.24,0.09 0.39,0.18 0.28,0.19 0.76,1.16 1.42,2.93 0.28,0.75 0.54,1.38 0.79,1.9 0.24,0.51 0.42,0.77 0.53,0.77 0.09,0 0.22,-0.26 0.39,-0.77 0.18,-0.52 0.33,-1.12 0.47,-1.81 0.44,-1.98 0.67,-3.02 0.7,-3.11z"/>
   <path class="fil0" d="M60.89 7.96c0.43,-0.17 1.06,-0.23 1.87,-0.17 0.82,0.05 1.6,0.2 2.34,0.44 0.39,0.1 0.5,0.29 0.34,0.56 -0.2,0.34 -0.58,0.5 -1.14,0.5 -0.8,0 -1.18,0.34 -1.15,1.02 0.05,0.74 0.57,1.66 1.56,2.76 1.15,1.26 1.77,2.39 1.86,3.4 0.09,1.01 -0.36,1.86 -1.34,2.54 -0.34,0.27 -0.78,0.52 -1.3,0.76 -0.52,0.23 -0.97,0.38 -1.35,0.44 -0.37,0.09 -0.75,0.22 -1.12,0.39 -0.37,0.18 -0.62,0.34 -0.76,0.49 -0.18,0.21 -0.52,0.38 -1.01,0.5 -0.5,0.12 -0.97,0.15 -1.4,0.1 -0.43,-0.05 -0.64,-0.18 -0.64,-0.37 0,-0.11 0.13,-0.25 0.38,-0.42 0.26,-0.18 0.56,-0.32 0.91,-0.42 0.59,-0.2 1.18,-0.73 1.79,-1.6 0.6,-0.87 0.9,-1.62 0.9,-2.27 0,-0.31 -0.31,-0.88 -0.93,-1.72 -0.61,-0.8 -1.06,-1.8 -1.32,-2.98 -0.26,-1.19 -0.24,-2.07 0.08,-2.66 0.12,-0.24 0.32,-0.49 0.6,-0.74 0.28,-0.25 0.55,-0.43 0.83,-0.55z"/>
   <path class="fil0" d="M77.2 9.81c0.66,-0.37 1.2,-0.52 1.61,-0.45 0.4,0.08 0.9,0.42 1.49,1.04 0.36,0.35 0.62,0.69 0.76,1.01 0.14,0.32 0.24,0.77 0.28,1.34 0.05,0.56 0.07,1.52 0.07,2.88 0,1.78 -0.05,3 -0.16,3.65 -0.1,0.65 -0.36,1.23 -0.77,1.74 -0.5,0.65 -1.07,1.01 -1.72,1.09 -0.65,0.07 -1.27,-0.16 -1.88,-0.7 -0.3,-0.27 -0.71,-0.46 -1.22,-0.55 -0.51,-0.09 -1.25,-0.11 -2.22,-0.06 -1.16,0.04 -1.96,0 -2.4,-0.12 -0.44,-0.12 -0.9,-0.42 -1.38,-0.9 -1.45,-1.47 -1.39,-3.48 0.18,-6.05 0.53,-0.89 1,-1.48 1.43,-1.77 0.42,-0.28 1.23,-0.58 2.42,-0.9 1.86,-0.51 3.03,-0.93 3.51,-1.25zm-1.11 5.17c0,-1.27 -0.05,-2.02 -0.16,-2.25 -0.1,-0.22 -0.48,-0.33 -1.13,-0.33 -0.82,0 -1.61,0.3 -2.38,0.92 -0.77,0.62 -1.24,1.32 -1.42,2.09 -0.17,0.75 -0.16,1.45 0.04,2.08 0.2,0.63 0.5,1.11 0.91,1.43 0.4,0.31 0.89,0.46 1.46,0.43 0.56,-0.03 1.1,-0.29 1.62,-0.77 0.45,-0.43 0.74,-0.86 0.87,-1.31 0.13,-0.44 0.19,-1.21 0.19,-2.29z"/>
   <path class="fil0" d="M83.5 10.22c0.14,-0.41 0.46,-0.69 0.97,-0.86 0.52,-0.17 1.07,-0.17 1.66,-0.01 0.59,0.16 1.03,0.45 1.33,0.87 0.24,0.38 0.5,0.61 0.76,0.69 0.27,0.09 0.68,0.06 1.24,-0.08 1.07,-0.21 1.9,-0.15 2.5,0.18 0.59,0.34 1.13,1.05 1.62,2.13 0.36,0.85 0.58,1.58 0.65,2.21 0.08,0.63 0.06,1.58 -0.06,2.86 -0.1,0.83 -0.21,1.57 -0.34,2.22 -0.14,0.65 -0.25,1.01 -0.34,1.07 -0.43,0.27 -0.65,0.04 -0.68,-0.68 -0.05,-0.59 0.05,-1.4 0.29,-2.42 0.23,-1.03 0.33,-1.81 0.31,-2.34 -0.03,-0.52 -0.2,-1.21 -0.54,-2.06 -0.43,-1.17 -0.95,-1.91 -1.55,-2.19 -0.59,-0.29 -1.31,-0.17 -2.14,0.36 -0.28,0.19 -0.49,0.35 -0.62,0.47 -0.13,0.12 -0.22,0.31 -0.28,0.55 -0.06,0.24 -0.08,0.5 -0.07,0.78 0.02,0.28 0.06,0.72 0.14,1.32 0.34,3.08 -0.12,5.03 -1.39,5.85 -0.75,0.51 -1.37,0.58 -1.85,0.22 -0.49,-0.36 -0.9,-1.22 -1.25,-2.58 -0.33,-1.18 -0.53,-2.71 -0.61,-4.6 -0.07,-1.88 0.01,-3.2 0.25,-3.96z"/>
   <path class="fil0" d="M100.25 6.62c0.51,-0.18 1.11,-0.14 1.79,0.11 0.68,0.26 1.1,0.61 1.27,1.05 0.07,0.18 0.07,0.49 0,0.92 -0.08,0.44 -0.19,0.89 -0.34,1.34 -0.26,0.71 -0.48,1.46 -0.67,2.26 -0.19,0.8 -0.31,1.45 -0.35,1.94 -0.05,0.49 -0.01,0.77 0.11,0.83 0.17,0 0.92,-0.6 2.27,-1.79 1.55,-1.33 2.57,-1.93 3.05,-1.79 0.14,0.04 0.21,0.16 0.21,0.34 0,0.06 -0.23,0.33 -0.69,0.8 -0.46,0.48 -1,1.01 -1.62,1.6l-2.36 2.08 1.16 0.93c0.74,0.57 1.53,1.67 2.37,3.27 0.85,1.61 1.18,2.65 1,3.12 -0.29,0.77 -0.58,0.94 -0.88,0.52 -0.23,-0.32 -0.41,-0.92 -0.55,-1.81 -0.12,-0.77 -0.42,-1.6 -0.91,-2.47 -0.49,-0.88 -1.02,-1.55 -1.59,-2.02 -0.56,-0.47 -0.99,-0.56 -1.28,-0.29 -0.19,0.19 -0.29,0.46 -0.29,0.8 0,0.34 0.1,0.85 0.29,1.53 0.37,1.31 0.34,2.36 -0.08,3.14 -0.41,0.77 -1.25,1.36 -2.52,1.75 -0.53,0.17 -0.96,0.28 -1.29,0.35 -0.33,0.07 -0.64,0.08 -0.91,0.02 -0.27,-0.05 -0.47,-0.15 -0.61,-0.31 -0.13,-0.16 -0.24,-0.42 -0.33,-0.78 -0.08,-0.37 -0.13,-0.78 -0.16,-1.24 -0.02,-0.46 -0.02,-1.06 -0.01,-1.8 0.05,-1.82 0.38,-4.39 1.01,-7.7 0.63,-3.3 1.14,-5.23 1.53,-5.77 0.38,-0.44 0.84,-0.75 1.38,-0.93zm1.9 2.9c0.09,-0.21 0.16,-0.4 0.2,-0.57 0.03,-0.16 0.04,-0.29 0.03,-0.39 -0.02,-0.1 -0.06,-0.15 -0.14,-0.15 -0.19,0 -0.41,0.3 -0.65,0.91 -0.25,0.6 -0.29,0.98 -0.14,1.13 0.06,0.04 0.16,-0.02 0.31,-0.21 0.14,-0.18 0.27,-0.42 0.39,-0.72zm-0.79 13.31c0,-0.18 -0.02,-0.34 -0.06,-0.47 -0.03,-0.14 -0.08,-0.21 -0.12,-0.21 -0.08,0 -0.22,0.23 -0.43,0.68 -0.08,0.18 -0.1,0.34 -0.06,0.47 0.04,0.13 0.11,0.19 0.22,0.19 0.13,0 0.24,-0.06 0.33,-0.19 0.08,-0.13 0.12,-0.29 0.12,-0.47z"/>
   <path class="fil1" d="M114.95 6.09c-3.31,1.35 -5.39,3.82 -6.75,7.16 -1.27,3.12 -0.19,6.64 2.64,8.63 0.14,0.1 0.29,0.19 0.44,0.28 1.78,1.03 4.02,0.91 5.93,0.31 1.8,-0.58 2.97,-1.52 3.84,-3.21 1.29,-2.48 1.19,-5.69 0.1,-8.23 -0.81,-1.86 -1.65,-2.99 -3.53,-2.86 -2.31,0.17 -5.17,2.89 -6.2,5.36 -0.58,1.41 -0.7,2.63 0.21,4.38 0.5,0.94 2.55,2.14 4.1,1.75 1.44,-0.36 2.13,-1.41 2.6,-3.19 0.32,-1.19 0.03,-3.36 -0.87,-3.85 -0.9,-0.49 -1.73,-0.38 -2.73,0.4 -1,0.77 -0.63,2.03 0.25,2.43 0.72,0.51 2.46,-0.74 1.47,1.37 -0.61,1.32 -2.15,0.99 -2.7,0.62 -1.29,-0.88 -1.32,-2.14 -0.76,-3.42 0.7,-1.56 1.91,-3.36 3.64,-3.58 2.29,-0.29 3.31,1.51 3.57,3.51 0.15,1.13 0.11,2.51 -0.26,3.59 -0.15,0.42 -0.33,0.77 -0.59,1.13 -2.1,2.81 -5.13,3.57 -7.96,1.24 -1.58,-1.3 -1.85,-3.09 -1.55,-5.09 0.32,-2.1 1.92,-3.98 3.41,-5.41 1.47,-1.42 3.78,-2.91 6.64,-1.8 0.81,0.32 1.86,1.32 2.33,1.72 0.37,0.31 0.47,-2.37 -1.84,-3.58 -0.91,-0.47 -4.01,-0.24 -5.43,0.34z"/>
   <path class="fil1" d="M145.44 5.94c-3.31,1.35 -5.39,3.81 -6.75,7.16 -1.27,3.12 -0.19,6.64 2.64,8.62 0.14,0.11 0.29,0.19 0.44,0.28 1.78,1.04 4.02,0.92 5.93,0.32 1.8,-0.58 2.97,-1.52 3.84,-3.21 1.29,-2.49 1.19,-5.69 0.09,-8.23 -0.8,-1.86 -1.64,-3 -3.52,-2.86 -2.31,0.17 -5.18,2.89 -6.2,5.36 -0.59,1.41 -0.7,2.63 0.21,4.38 0.49,0.94 2.55,2.14 4.1,1.75 1.44,-0.36 2.13,-1.41 2.6,-3.19 0.31,-1.2 0.03,-3.36 -0.87,-3.85 -0.9,-0.49 -1.73,-0.38 -2.73,0.39 -1,0.78 -0.64,2.04 0.25,2.44 0.72,0.51 2.46,-0.75 1.47,1.37 -0.61,1.31 -2.15,0.99 -2.7,0.62 -1.29,-0.89 -1.32,-2.14 -0.76,-3.42 0.69,-1.56 1.91,-3.36 3.64,-3.58 2.29,-0.29 3.31,1.51 3.57,3.51 0.15,1.13 0.1,2.51 -0.26,3.59 -0.15,0.42 -0.34,0.76 -0.59,1.13 -2.1,2.81 -5.13,3.57 -7.96,1.23 -1.58,-1.29 -1.85,-3.08 -1.55,-5.08 0.31,-2.1 1.91,-3.98 3.41,-5.41 1.47,-1.42 3.78,-2.91 6.63,-1.8 0.81,0.32 1.87,1.32 2.34,1.71 0.37,0.32 0.47,-2.37 -1.85,-3.57 -0.9,-0.47 -4,-0.24 -5.42,0.34z"/>
  </g>
  <path class="fil1" d="M3.75 24.45c2.65,2.53 6.46,3.15 9.98,2.76 3.61,-0.4 7.45,-3.42 9.02,-6.85 1.85,-4.06 2.61,-8.54 0.63,-12.52 -1.08,-2.16 -3.6,-3.55 -6.14,-3.59 -4.66,-0.09 -9.42,4.25 -11.22,8.58 -0.67,1.62 -0.51,3.43 0.03,5.09 1.38,3.56 6.28,5.76 9.41,2.84 1.1,-1.03 2.03,-2.71 2.4,-4.19 0.48,-1.95 0.71,-5.25 -1.47,-6.29 -1.88,-0.77 -4.01,-0.1 -4.11,2.19 -0.04,1.07 0.47,1.84 1.5,2.15 1.26,0.29 1.87,0.23 1.28,1.68 -0.7,1.75 -2.01,3.18 -4.03,2.39 -0.27,-0.1 -0.5,-0.22 -0.75,-0.37 -1.64,-1.06 -2.2,-2.79 -1.59,-4.62 0.23,-0.7 0.58,-1.3 1,-1.9 0.99,-1.41 2.42,-2.85 3.91,-3.72 1.78,-0.91 3.72,-1.16 5.43,-0.03 2.94,1.94 2.8,5.55 1.99,8.57 -0.89,3.34 -2.8,5.97 -6.01,7.31 -4.07,1.69 -7.58,0.37 -10.18,-3.02 -2.02,-2.64 -2.08,-5.61 -0.94,-8.59 1.33,-3.45 3.65,-6.11 6.76,-7.96 3.7,-2.2 8.33,-2.99 12.18,-0.63 1.21,0.74 2.35,2.35 3.23,3.47 0.24,0.31 0.38,0.12 0.34,-0.2 -0.52,-3.65 -3.39,-6.58 -7.1,-6.95 -4.05,-0.34 -8.49,0.96 -11.71,3.33 -2.22,1.63 -4.01,3.36 -5.65,5.85 -3.18,4.96 -2.36,11.12 1.81,15.22z"/>
 </g>
</svg>
