<svg height="512pt" viewBox="-3 0 512 512" width="512pt" xmlns="http://www.w3.org/2000/svg">
  <path d="M295 315v92a106 106 0 00211 0v-92c0-53-40-97-91-104V90a90 90 0 00-180 0v332a60 60 0 01-120 0V300h15c8 0 15-7 15-15v-67c0-27 15-52 38-66l9-4a15 15 0 004-22L112 13c-3-4-7-6-12-6s-9 2-12 6L3 125a15 15 0 004 22l10 5c23 14 38 38 38 65v68c0 8 7 15 15 15h15v122a90 90 0 00180 0V90a60 60 0 01120 0v121c-51 7-90 51-90 104zm-180-45H85v-30h30zM37 129l48-63v84a15 15 0 1030 0V67l47 63c-27 18-44 48-47 80H85c-2-32-20-62-48-81zm348 113v89h-60v-16c0-36 26-67 60-73zm15 240c-41 0-75-34-75-75v-46h151v46c0 41-34 75-76 75zm76-167v16h-61v-90c35 7 61 38 61 74zm0 0"/>
  <path d="M415 422h-30a15 15 0 100 30h30a15 15 0 100-30zm0 0"/>
</svg>
