<svg xmlns="http://www.w3.org/2000/svg" width="512" height="512" viewBox="0 0 480 480">
  <g xmlns="http://www.w3.org/2000/svg">
    <path d="M240 0a240 240 0 100 480 240 240 0 000-480zm0 464a224 224 0 110-448 224 224 0 010 448z" fill="#644438" data-original="#000000"/>
    <path d="M240 32a208 208 0 100 416 208 208 0 000-416zm0 400a192 192 0 110-384 192 192 0 010 384z" fill="#644438" data-original="#000000"/>
    <path d="M240 112c4 0 8-4 8-8V72a8 8 0 00-16 0v32c0 4 4 8 8 8zM240 368c-4 0-8 4-8 8v32a8 8 0 0016 0v-32c0-4-4-8-8-8zM104 232H72a8 8 0 000 16h32a8 8 0 000-16zM408 232h-32a8 8 0 000 16h32a8 8 0 000-16zM336 144c-3-3-8-3-11 0l-69 69c-10-6-22-6-32 0l-35-35a8 8 0 00-11 11l35 35a32 32 0 1054 0l69-69c3-3 3-8 0-11zm-85 107a16 16 0 110-22c7 6 7 16 0 22z" fill="#644438" data-original="#000000"/>
  </g>
</svg>
